<svg width="304" height="128" viewBox="0 0 304 128" fill="none" xmlns="http://www.w3.org/2000/svg">
<g clip-path="url(#clip0_1301_2)">
<path d="M44.4817 36.6056L62.2827 41.5024M62.2827 41.5024L69.4031 59.8658M62.2827 41.5024L88.6283 6L110.702 41.5024M110.702 41.5024V53.7447M110.702 41.5024L124.942 29.8723" stroke="white" stroke-width="2"/>
<path d="M109.99 58.0294L109.94 57.9162L102.157 72.108L109.99 58.0294Z" fill="#fff"/>
<path d="M23.1204 107.61L43.7696 37.8298L70.7255 62.3142M81.5078 72.108L70.7255 62.3142M70.7255 62.3142L87.9162 7.83633L109.99 58.0294L102.157 72.108L125.654 29.2602L140.607 72.108" stroke="white" stroke-width="3"/>
<rect x="47.3298" y="62.9263" width="7.12042" height="11.018" fill="#fff"/>
<rect x="87.2042" y="42.1146" width="7.12042" height="11.018" fill="#fff"/>
<rect x="121.382" y="51.9083" width="7.12042" height="11.018" fill="#fff"/>
<path d="M80.7958 71.4959L85.7801 75.7807" stroke="black" stroke-width="2"/>
<path d="M102.869 69.6595L98.5969 75.1685" stroke="black" stroke-width="2"/>
<path d="M139.183 70.2717V73.9443" stroke="black" stroke-width="2"/>
<path d="M16 123C19.5602 103.004 51.7445 65.2167 152 74.0311" stroke="#fff" stroke-width="4"/>
<path d="M16 119.5C59.5 73 145.5 73 145.5 73" stroke="#fff" stroke-width="4"/>
<path d="M90.9655 108V87H100.806C103.326 87 105.246 87.5 106.566 88.5C107.886 89.48 108.546 90.8 108.546 92.46C108.546 93.58 108.286 94.54 107.766 95.34C107.246 96.12 106.546 96.73 105.666 97.17C104.806 97.59 103.866 97.8 102.846 97.8L103.386 96.72C104.566 96.72 105.626 96.94 106.566 97.38C107.506 97.8 108.246 98.42 108.786 99.24C109.346 100.06 109.626 101.08 109.626 102.3C109.626 104.1 108.936 105.5 107.556 106.5C106.176 107.5 104.126 108 101.406 108H90.9655ZM94.8655 104.94H101.166C102.626 104.94 103.746 104.7 104.526 104.22C105.306 103.74 105.696 102.97 105.696 101.91C105.696 100.87 105.306 100.11 104.526 99.63C103.746 99.13 102.626 98.88 101.166 98.88H94.5655V95.85H100.386C101.746 95.85 102.786 95.61 103.506 95.13C104.246 94.65 104.616 93.93 104.616 92.97C104.616 91.99 104.246 91.26 103.506 90.78C102.786 90.3 101.746 90.06 100.386 90.06H94.8655V104.94ZM120.958 108.21C119.178 108.21 117.618 107.86 116.278 107.16C114.958 106.44 113.928 105.46 113.188 104.22C112.468 102.98 112.108 101.57 112.108 99.99C112.108 98.39 112.458 96.98 113.158 95.76C113.878 94.52 114.858 93.55 116.098 92.85C117.358 92.15 118.788 91.8 120.388 91.8C121.948 91.8 123.338 92.14 124.558 92.82C125.778 93.5 126.738 94.46 127.438 95.7C128.138 96.94 128.488 98.4 128.488 100.08C128.488 100.24 128.478 100.42 128.458 100.62C128.458 100.82 128.448 101.01 128.428 101.19H115.078V98.7H126.448L124.978 99.48C124.998 98.56 124.808 97.75 124.408 97.05C124.008 96.35 123.458 95.8 122.758 95.4C122.078 95 121.288 94.8 120.388 94.8C119.468 94.8 118.658 95 117.958 95.4C117.278 95.8 116.738 96.36 116.338 97.08C115.958 97.78 115.768 98.61 115.768 99.57V100.17C115.768 101.13 115.988 101.98 116.428 102.72C116.868 103.46 117.488 104.03 118.288 104.43C119.088 104.83 120.008 105.03 121.048 105.03C121.948 105.03 122.758 104.89 123.478 104.61C124.198 104.33 124.838 103.89 125.398 103.29L127.408 105.6C126.688 106.44 125.778 107.09 124.678 107.55C123.598 107.99 122.358 108.21 120.958 108.21ZM132.09 108V91.98H135.66V96.39L135.24 95.1C135.72 94.02 136.47 93.2 137.49 92.64C138.53 92.08 139.82 91.8 141.36 91.8V95.37C141.2 95.33 141.05 95.31 140.91 95.31C140.77 95.29 140.63 95.28 140.49 95.28C139.07 95.28 137.94 95.7 137.1 96.54C136.26 97.36 135.84 98.59 135.84 100.23V108H132.09ZM144.541 108V91.98H148.291V108H144.541ZM146.431 89.34C145.731 89.34 145.151 89.12 144.691 88.68C144.251 88.24 144.031 87.71 144.031 87.09C144.031 86.45 144.251 85.92 144.691 85.5C145.151 85.06 145.731 84.84 146.431 84.84C147.131 84.84 147.701 85.05 148.141 85.47C148.601 85.87 148.831 86.38 148.831 87C148.831 87.66 148.611 88.22 148.171 88.68C147.731 89.12 147.151 89.34 146.431 89.34ZM158.163 108.21C156.823 108.21 155.533 108.04 154.293 107.7C153.073 107.34 152.103 106.91 151.383 106.41L152.823 103.56C153.543 104.02 154.403 104.4 155.403 104.7C156.403 105 157.403 105.15 158.403 105.15C159.583 105.15 160.433 104.99 160.953 104.67C161.493 104.35 161.763 103.92 161.763 103.38C161.763 102.94 161.583 102.61 161.223 102.39C160.863 102.15 160.393 101.97 159.813 101.85C159.233 101.73 158.583 101.62 157.863 101.52C157.163 101.42 156.453 101.29 155.733 101.13C155.033 100.95 154.393 100.7 153.813 100.38C153.233 100.04 152.763 99.59 152.403 99.03C152.043 98.47 151.863 97.73 151.863 96.81C151.863 95.79 152.153 94.91 152.733 94.17C153.313 93.41 154.123 92.83 155.163 92.43C156.223 92.01 157.473 91.8 158.913 91.8C159.993 91.8 161.083 91.92 162.183 92.16C163.283 92.4 164.193 92.74 164.913 93.18L163.473 96.03C162.713 95.57 161.943 95.26 161.163 95.1C160.403 94.92 159.643 94.83 158.883 94.83C157.743 94.83 156.893 95 156.333 95.34C155.793 95.68 155.523 96.11 155.523 96.63C155.523 97.11 155.703 97.47 156.063 97.71C156.423 97.95 156.893 98.14 157.473 98.28C158.053 98.42 158.693 98.54 159.393 98.64C160.113 98.72 160.823 98.85 161.523 99.03C162.223 99.21 162.863 99.46 163.443 99.78C164.043 100.08 164.523 100.51 164.883 101.07C165.243 101.63 165.423 102.36 165.423 103.26C165.423 104.26 165.123 105.13 164.523 105.87C163.943 106.61 163.113 107.19 162.033 107.61C160.953 108.01 159.663 108.21 158.163 108.21ZM177.742 91.8C179.022 91.8 180.162 92.05 181.162 92.55C182.182 93.05 182.982 93.82 183.562 94.86C184.142 95.88 184.432 97.2 184.432 98.82V108H180.682V99.3C180.682 97.88 180.342 96.82 179.662 96.12C179.002 95.42 178.072 95.07 176.872 95.07C175.992 95.07 175.212 95.25 174.532 95.61C173.852 95.97 173.322 96.51 172.942 97.23C172.582 97.93 172.402 98.82 172.402 99.9V108H168.652V85.74H172.402V96.3L171.592 94.98C172.152 93.96 172.962 93.18 174.022 92.64C175.102 92.08 176.342 91.8 177.742 91.8ZM199.059 108V104.76L198.849 104.07V98.4C198.849 97.3 198.519 96.45 197.859 95.85C197.199 95.23 196.199 94.92 194.859 94.92C193.959 94.92 193.069 95.06 192.189 95.34C191.329 95.62 190.599 96.01 189.999 96.51L188.529 93.78C189.389 93.12 190.409 92.63 191.589 92.31C192.789 91.97 194.029 91.8 195.309 91.8C197.629 91.8 199.419 92.36 200.679 93.48C201.959 94.58 202.599 96.29 202.599 98.61V108H199.059ZM194.019 108.21C192.819 108.21 191.769 108.01 190.869 107.61C189.969 107.19 189.269 106.62 188.769 105.9C188.289 105.16 188.049 104.33 188.049 103.41C188.049 102.51 188.259 101.7 188.679 100.98C189.119 100.26 189.829 99.69 190.809 99.27C191.789 98.85 193.089 98.64 194.709 98.64H199.359V101.13H194.979C193.699 101.13 192.839 101.34 192.399 101.76C191.959 102.16 191.739 102.66 191.739 103.26C191.739 103.94 192.009 104.48 192.549 104.88C193.089 105.28 193.839 105.48 194.799 105.48C195.719 105.48 196.539 105.27 197.259 104.85C197.999 104.43 198.529 103.81 198.849 102.99L199.479 105.24C199.119 106.18 198.469 106.91 197.529 107.43C196.609 107.95 195.439 108.21 194.019 108.21ZM213.093 108L222.543 87H226.383L235.863 108H231.783L223.653 89.07H225.213L217.113 108H213.093ZM217.443 103.14L218.493 100.08H229.833L230.883 103.14H217.443ZM244.594 108.3C243.134 108.3 241.824 108.06 240.664 107.58C239.504 107.1 238.594 106.44 237.934 105.6C237.274 104.76 236.944 103.79 236.944 102.69C236.944 101.69 237.164 100.79 237.604 99.99C238.044 99.19 238.744 98.43 239.704 97.71C240.664 96.97 241.894 96.23 243.394 95.49C244.574 94.91 245.494 94.4 246.154 93.96C246.834 93.52 247.304 93.1 247.564 92.7C247.844 92.3 247.984 91.88 247.984 91.44C247.984 90.84 247.774 90.36 247.354 90C246.934 89.62 246.334 89.43 245.554 89.43C244.714 89.43 244.054 89.64 243.574 90.06C243.114 90.46 242.884 90.99 242.884 91.65C242.884 91.99 242.944 92.32 243.064 92.64C243.204 92.96 243.444 93.32 243.784 93.72C244.124 94.12 244.614 94.63 245.254 95.25L256.354 105.9L254.284 108.33L242.284 96.81C241.604 96.15 241.054 95.54 240.634 94.98C240.214 94.42 239.914 93.88 239.734 93.36C239.554 92.82 239.464 92.27 239.464 91.71C239.464 90.73 239.714 89.87 240.214 89.13C240.714 88.37 241.424 87.79 242.344 87.39C243.264 86.97 244.334 86.76 245.554 86.76C246.694 86.76 247.674 86.95 248.494 87.33C249.334 87.69 249.984 88.22 250.444 88.92C250.924 89.6 251.164 90.42 251.164 91.38C251.164 92.22 250.954 93 250.534 93.72C250.114 94.42 249.454 95.09 248.554 95.73C247.674 96.37 246.494 97.04 245.014 97.74C243.914 98.28 243.044 98.79 242.404 99.27C241.764 99.75 241.304 100.23 241.024 100.71C240.744 101.19 240.604 101.72 240.604 102.3C240.604 102.88 240.774 103.39 241.114 103.83C241.474 104.27 241.974 104.62 242.614 104.88C243.254 105.12 244.004 105.24 244.864 105.24C246.144 105.24 247.304 104.96 248.344 104.4C249.404 103.82 250.294 102.96 251.014 101.82C251.734 100.68 252.254 99.27 252.574 97.59L255.604 98.58C255.184 100.6 254.454 102.34 253.414 103.8C252.394 105.24 251.134 106.35 249.634 107.13C248.134 107.91 246.454 108.3 244.594 108.3ZM259.716 108V87H263.616V104.7H274.596V108H259.716Z" fill="white"/>
</g>
<defs>
<clipPath id="clip0_1301_2">
<rect width="304" height="128" fill="white"/>
</clipPath>
</defs>
</svg>
